<svg xmlns="http://www.w3.org/2000/svg" viewBox="0 0 192 192">
  <defs>
    <linearGradient id="orangeGradient192" x1="0%" y1="0%" x2="100%" y2="100%">
      <stop offset="0%" style="stop-color:#FF6B35;stop-opacity:1" />
      <stop offset="100%" style="stop-color:#FFA500;stop-opacity:1" />
    </linearGradient>
    <radialGradient id="lampGlow192">
      <stop offset="0%" style="stop-color:#FFEB3B;stop-opacity:0.8">
        <animate attributeName="stop-opacity" values="0.8;1;0.8" dur="2s" repeatCount="indefinite"/>
      </stop>
      <stop offset="100%" style="stop-color:#FFA500;stop-opacity:0">
        <animate attributeName="stop-opacity" values="0;0.3;0" dur="2s" repeatCount="indefinite"/>
      </stop>
    </radialGradient>
  </defs>
  <rect width="192" height="192" fill="#000000"/>
  <path d="M 96 14 L 163 53 L 163 130 L 96 168 L 29 130 L 29 53 Z" fill="none" stroke="url(#orangeGradient192)" stroke-width="4"/>
  <path d="M 24 72 L 96 29 L 168 72" fill="none" stroke="url(#orangeGradient192)" stroke-width="4" stroke-linejoin="miter"/>
  <line x1="24" y1="72" x2="24" y2="86" stroke="url(#orangeGradient192)" stroke-width="4"/>
  <line x1="168" y1="72" x2="168" y2="86" stroke="url(#orangeGradient192)" stroke-width="4"/>
  <g transform="translate(96, 48)">
    <circle cx="0" cy="3" r="17" fill="url(#lampGlow192)" opacity="0.6"/>
    <line x1="-12" y1="-7" x2="-7" y2="-12" stroke="url(#orangeGradient192)" stroke-width="1.5"/>
    <line x1="12" y1="-7" x2="7" y2="-12" stroke="url(#orangeGradient192)" stroke-width="1.5"/>
    <line x1="-7" y1="-12" x2="7" y2="-12" stroke="url(#orangeGradient192)" stroke-width="1.5"/>
    <rect x="-10" y="-7" width="20" height="17" fill="url(#orangeGradient192)" fill-opacity="0.15" stroke="url(#orangeGradient192)" stroke-width="1.5" rx="1.5">
      <animate attributeName="fill-opacity" values="0.15;0.25;0.15" dur="2s" repeatCount="indefinite"/>
    </rect>
    <line x1="-10" y1="-2" x2="10" y2="-2" stroke="url(#orangeGradient192)" stroke-width="1"/>
    <line x1="-10" y1="3" x2="10" y2="3" stroke="url(#orangeGradient192)" stroke-width="1"/>
    <line x1="-5" y1="-7" x2="-5" y2="10" stroke="url(#orangeGradient192)" stroke-width="1"/>
    <line x1="0" y1="-7" x2="0" y2="10" stroke="url(#orangeGradient192)" stroke-width="1"/>
    <line x1="5" y1="-7" x2="5" y2="10" stroke="url(#orangeGradient192)" stroke-width="1"/>
    <rect x="-4" y="10" width="8" height="6" fill="none" stroke="url(#orangeGradient192)" stroke-width="1.5"/>
  </g>
  <rect x="12" y="77" width="168" height="34" fill="#000000" stroke="url(#orangeGradient192)" stroke-width="4"/>
  <text x="96" y="101" font-family="Arial Black, sans-serif" font-size="23" font-weight="900" fill="#8B1538" text-anchor="middle">АСУБТ</text>
  <path d="M 24 111 L 168 111 L 163 125 L 29 125 Z" fill="#000000" stroke="url(#orangeGradient192)" stroke-width="3"/>
  <text x="96" y="121" font-family="Arial, sans-serif" font-size="10" font-weight="bold" fill="#FFA500" text-anchor="middle">2025-2026</text>
  <path d="M 77 139 L 96 154 L 115 139" fill="#8B1538" stroke="url(#orangeGradient192)" stroke-width="2" stroke-linejoin="miter"/>
</svg>
