<svg xmlns="http://www.w3.org/2000/svg" viewBox="0 0 512 512">
  <defs>
    <linearGradient id="orangeGradient512" x1="0%" y1="0%" x2="100%" y2="100%">
      <stop offset="0%" style="stop-color:#FF6B35;stop-opacity:1" />
      <stop offset="100%" style="stop-color:#FFA500;stop-opacity:1" />
    </linearGradient>
    <radialGradient id="lampGlow512">
      <stop offset="0%" style="stop-color:#FFEB3B;stop-opacity:0.8">
        <animate attributeName="stop-opacity" values="0.8;1;0.8" dur="2s" repeatCount="indefinite"/>
      </stop>
      <stop offset="100%" style="stop-color:#FFA500;stop-opacity:0">
        <animate attributeName="stop-opacity" values="0;0.3;0" dur="2s" repeatCount="indefinite"/>
      </stop>
    </radialGradient>
  </defs>
  <rect width="512" height="512" fill="#000000"/>
  <path d="M 256 38 L 435 141 L 435 346 L 256 448 L 77 346 L 77 141 Z" fill="none" stroke="url(#orangeGradient512)" stroke-width="10"/>
  <path d="M 64 192 L 256 77 L 448 192" fill="none" stroke="url(#orangeGradient512)" stroke-width="10" stroke-linejoin="miter"/>
  <line x1="64" y1="192" x2="64" y2="230" stroke="url(#orangeGradient512)" stroke-width="10"/>
  <line x1="448" y1="192" x2="448" y2="230" stroke="url(#orangeGradient512)" stroke-width="10"/>
  <g transform="translate(256, 128)">
    <circle cx="0" cy="8" r="45" fill="url(#lampGlow512)" opacity="0.6"/>
    <line x1="-32" y1="-19" x2="-19" y2="-32" stroke="url(#orangeGradient512)" stroke-width="4"/>
    <line x1="32" y1="-19" x2="19" y2="-32" stroke="url(#orangeGradient512)" stroke-width="4"/>
    <line x1="-19" y1="-32" x2="19" y2="-32" stroke="url(#orangeGradient512)" stroke-width="4"/>
    <rect x="-26" y="-19" width="52" height="45" fill="url(#orangeGradient512)" fill-opacity="0.15" stroke="url(#orangeGradient512)" stroke-width="4" rx="4">
      <animate attributeName="fill-opacity" values="0.15;0.25;0.15" dur="2s" repeatCount="indefinite"/>
    </rect>
    <line x1="-26" y1="-6" x2="26" y2="-6" stroke="url(#orangeGradient512)" stroke-width="3"/>
    <line x1="-26" y1="6" x2="26" y2="6" stroke="url(#orangeGradient512)" stroke-width="3"/>
    <line x1="-13" y1="-19" x2="-13" y2="26" stroke="url(#orangeGradient512)" stroke-width="3"/>
    <line x1="0" y1="-19" x2="0" y2="26" stroke="url(#orangeGradient512)" stroke-width="3"/>
    <line x1="13" y1="-19" x2="13" y2="26" stroke="url(#orangeGradient512)" stroke-width="3"/>
    <rect x="-10" y="26" width="20" height="15" fill="none" stroke="url(#orangeGradient512)" stroke-width="4"/>
  </g>
  <rect x="32" y="205" width="448" height="90" fill="#000000" stroke="url(#orangeGradient512)" stroke-width="10"/>
  <text x="256" y="270" font-family="Arial Black, sans-serif" font-size="62" font-weight="900" fill="#8B1538" text-anchor="middle">АСУБТ</text>
  <path d="M 64 295 L 448 295 L 435 333 L 77 333 Z" fill="#000000" stroke="url(#orangeGradient512)" stroke-width="8"/>
  <text x="256" y="323" font-family="Arial, sans-serif" font-size="26" font-weight="bold" fill="#FFA500" text-anchor="middle">2025-2026</text>
  <path d="M 205 371 L 256 410 L 307 371" fill="#8B1538" stroke="url(#orangeGradient512)" stroke-width="5" stroke-linejoin="miter"/>
</svg>
